<svg width="4272" height="859" viewBox="0 0 4272 859" fill="none" xmlns="http://www.w3.org/2000/svg">
<path d="M275.8 668H0.400003V38.8999H245.2C287.8 38.8999 324.4 44 355 54.2C386.2 64.4 409.6 78.2 425.2 95.6C453.4 128 467.5 164.6 467.5 205.4C467.5 254.6 451.6 291.2 419.8 315.2C409 323.6 401.5 329 397.3 331.4C393.1 333.2 385.6 336.5 374.8 341.3C413.8 349.7 444.7 367.4 467.5 394.4C490.9 420.8 502.6 453.8 502.6 493.4C502.6 537.2 487.6 575.9 457.6 609.5C422.8 648.5 362.2 668 275.8 668ZM140.8 293.6H207.4C246.4 293.6 275.2 289.4 293.8 281C313 272.6 322.6 254.6 322.6 227C322.6 198.8 313.9 180.2 296.5 171.2C279.1 162.2 249.7 157.7 208.3 157.7H140.8V293.6ZM140.8 549.2H237.1C277.3 549.2 307.3 544.4 327.1 534.8C347.5 524.6 357.7 505.1 357.7 476.3C357.7 446.9 346.9 427.7 325.3 418.7C304.3 409.1 270.4 404.3 223.6 404.3H140.8V549.2ZM742.408 668H607.408V0.199961H742.408V668ZM978.201 425.9C978.201 465.5 989.301 497.9 1011.5 523.1C1034.3 547.7 1063.1 560 1097.9 560C1133.3 560 1162.1 547.7 1184.3 523.1C1207.1 497.9 1218.5 465.5 1218.5 425.9C1218.5 386.3 1207.1 353.9 1184.3 328.7C1162.1 303.5 1133.3 290.9 1097.9 290.9C1063.1 290.9 1034.3 303.5 1011.5 328.7C989.301 353.9 978.201 386.3 978.201 425.9ZM1354.4 425.9C1354.4 496.1 1330.1 555.2 1281.5 603.2C1232.9 651.2 1171.7 675.2 1097.9 675.2C1024.7 675.2 963.801 651.2 915.201 603.2C866.601 555.2 842.301 496.1 842.301 425.9C842.301 355.7 866.601 296.6 915.201 248.6C963.801 200 1024.7 175.7 1097.9 175.7C1171.7 175.7 1232.9 200 1281.5 248.6C1330.1 296.6 1354.4 355.7 1354.4 425.9ZM1793.97 416C1793.97 377 1783.17 346.4 1761.57 324.2C1739.97 302 1713.27 290.9 1681.47 290.9C1649.67 290.9 1622.07 302 1598.67 324.2C1575.87 346.4 1564.47 376.7 1564.47 415.1C1564.47 453.5 1575.57 484.7 1597.77 508.7C1620.57 532.1 1648.17 543.8 1680.57 543.8C1712.97 543.8 1739.97 532.1 1761.57 508.7C1783.17 485.3 1793.97 454.4 1793.97 416ZM1812.87 586.1C1770.27 633.5 1717.17 657.2 1653.57 657.2C1590.57 657.2 1537.17 635.9 1493.37 593.3C1450.17 550.1 1428.57 492.8 1428.57 421.4C1428.57 349.4 1450.77 290.6 1495.17 245C1540.17 198.8 1591.47 175.7 1649.07 175.7C1706.67 175.7 1754.37 199.4 1792.17 246.8V182.9H1927.17V605C1927.17 648.2 1919.67 686.6 1904.67 720.2C1889.67 753.8 1869.57 780.2 1844.37 799.4C1794.57 839 1735.77 858.8 1667.97 858.8C1631.97 858.8 1595.07 852.8 1557.27 840.8C1520.07 829.4 1487.37 812.9 1459.17 791.3L1511.37 689.6C1555.77 723.2 1602.57 740 1651.77 740C1701.57 740 1740.87 727.7 1769.67 703.1C1798.47 678.5 1812.87 639.5 1812.87 586.1ZM2578.77 247.7C2578.77 348.5 2538.87 413.6 2459.07 443L2618.37 668H2445.57L2306.07 467.3H2208.87V668H2068.47V38.8999H2306.97C2404.77 38.8999 2474.37 55.3999 2515.77 88.4C2557.77 121.4 2578.77 174.5 2578.77 247.7ZM2311.47 345.8C2359.47 345.8 2392.17 338 2409.57 322.4C2426.97 306.8 2435.67 282.2 2435.67 248.6C2435.67 214.4 2426.67 191 2408.67 178.4C2390.67 165.8 2359.17 159.5 2314.17 159.5H2208.87V345.8H2311.47ZM3128.27 597.8C3073.67 649.4 3009.47 675.2 2935.67 675.2C2862.47 675.2 2801.87 652.7 2753.87 607.7C2705.87 562.1 2681.87 501.2 2681.87 425C2681.87 348.8 2706.17 288.2 2754.77 243.2C2803.97 198.2 2861.87 175.7 2928.47 175.7C2995.07 175.7 3051.47 195.8 3097.67 236C3144.47 276.2 3167.87 331.4 3167.87 401.6V473.6H2815.07C2819.27 500 2833.07 521.6 2856.47 538.4C2879.87 555.2 2906.27 563.6 2935.67 563.6C2983.07 563.6 3022.07 547.7 3052.67 515.9L3128.27 597.8ZM3031.07 377.3C3028.07 348.5 3017.27 326.3 2998.67 310.7C2980.07 295.1 2957.27 287.3 2930.27 287.3C2903.87 287.3 2879.57 295.4 2857.37 311.6C2835.17 327.8 2822.27 349.7 2818.67 377.3H3031.07ZM3676.52 668H3549.62V609.5C3514.82 653.3 3471.62 675.2 3420.02 675.2C3369.02 675.2 3326.12 660.5 3291.32 631.1C3256.52 601.1 3239.12 561.5 3239.12 512.3C3239.12 462.5 3257.12 425.3 3293.12 400.7C3329.12 376.1 3378.32 363.8 3440.72 363.8H3541.52V361.1C3541.52 309.5 3514.22 283.7 3459.62 283.7C3436.22 283.7 3411.32 288.5 3384.92 298.1C3359.12 307.1 3337.22 318.5 3319.22 332.3L3258.92 245C3322.52 198.8 3395.12 175.7 3476.72 175.7C3535.52 175.7 3583.52 190.4 3620.72 219.8C3657.92 249.2 3676.52 295.7 3676.52 359.3V668ZM3540.62 483.5V460.1H3456.02C3402.02 460.1 3375.02 476.9 3375.02 510.5C3375.02 527.9 3381.32 541.4 3393.92 551C3407.12 560 3425.72 564.5 3449.72 564.5C3473.72 564.5 3494.72 557.3 3512.72 542.9C3531.32 527.9 3540.62 508.1 3540.62 483.5ZM3993.1 675.2C3936.1 675.2 3885.1 650.9 3840.1 602.3C3795.1 553.7 3772.6 493.4 3772.6 421.4C3772.6 349.4 3794.5 290.6 3838.3 245C3882.1 198.8 3933.4 175.7 3992.2 175.7C4051 175.7 4099 196.4 4136.2 237.8V0.199961H4271.2V668H4136.2V604.1C4098.4 651.5 4050.7 675.2 3993.1 675.2ZM3908.5 426.8C3908.5 465.8 3920.2 497.9 3943.6 523.1C3967 547.7 3994.3 560 4025.5 560C4056.7 560 4083.1 547.7 4104.7 523.1C4126.9 497.9 4138 465.8 4138 426.8C4138 387.2 4126.9 354.5 4104.7 328.7C4083.1 302.3 4056.4 289.1 4024.6 289.1C3992.8 289.1 3965.5 302.3 3942.7 328.7C3919.9 355.1 3908.5 387.8 3908.5 426.8Z" fill="#0066FF"/>
</svg>
