<svg width="4764" height="676" viewBox="0 0 4764 676" fill="none" xmlns="http://www.w3.org/2000/svg">
<path d="M440.5 38.8999H580.9V668H440.5L140.8 273.8V668H0.400003V38.8999H131.8L440.5 443.9V38.8999ZM1141.94 597.8C1087.34 649.4 1023.14 675.2 949.345 675.2C876.145 675.2 815.545 652.7 767.545 607.7C719.545 562.1 695.545 501.2 695.545 425C695.545 348.8 719.845 288.2 768.445 243.2C817.645 198.2 875.545 175.7 942.145 175.7C1008.74 175.7 1065.14 195.8 1111.34 236C1158.14 276.2 1181.54 331.4 1181.54 401.6V473.6H828.745C832.945 500 846.745 521.6 870.145 538.4C893.545 555.2 919.945 563.6 949.345 563.6C996.745 563.6 1035.74 547.7 1066.34 515.9L1141.94 597.8ZM1044.74 377.3C1041.74 348.5 1030.94 326.3 1012.34 310.7C993.745 295.1 970.945 287.3 943.945 287.3C917.545 287.3 893.245 295.4 871.045 311.6C848.845 327.8 835.945 349.7 832.345 377.3H1044.74ZM1526.5 668H1387L1222.3 183.8H1361.8L1456.3 476.3L1550.8 183.8H1681.3L1775.8 476.3L1870.3 183.8H2010.7L1846 668H1705.6L1616.5 404.3L1526.5 668ZM2444.08 517.7C2444.08 565.1 2426.38 603.2 2390.98 632C2356.18 660.8 2311.78 675.2 2257.78 675.2C2221.78 675.2 2184.28 668.9 2145.28 656.3C2106.28 643.1 2071.18 623.9 2039.98 598.7L2099.38 514.1C2149.78 553.1 2203.48 572.6 2260.48 572.6C2277.88 572.6 2291.68 569.3 2301.88 562.7C2312.08 555.5 2317.18 546.2 2317.18 534.8C2317.18 523.4 2309.98 512.9 2295.58 503.3C2281.78 493.7 2261.38 484.7 2234.38 476.3C2207.98 467.9 2187.58 460.7 2173.18 454.7C2159.38 448.7 2143.48 440 2125.48 428.6C2088.88 405.8 2070.58 372.2 2070.58 327.8C2070.58 282.8 2088.58 246.2 2124.58 218C2160.58 189.8 2207.08 175.7 2264.08 175.7C2321.08 175.7 2378.08 194.9 2435.08 233.3L2384.68 323.3C2342.68 294.5 2300.68 280.1 2258.68 280.1C2217.28 280.1 2196.58 291.5 2196.58 314.3C2196.58 326.9 2203.18 336.8 2216.38 344C2229.58 351.2 2251.48 359.6 2282.08 369.2C2312.68 378.8 2334.28 386.3 2346.88 391.7C2360.08 396.5 2375.68 404.3 2393.68 415.1C2427.28 435.5 2444.08 469.7 2444.08 517.7ZM3070.95 247.7C3070.95 348.5 3031.05 413.6 2951.25 443L3110.55 668H2937.75L2798.25 467.3H2701.05V668H2560.65V38.8999H2799.15C2896.95 38.8999 2966.55 55.3999 3007.95 88.4C3049.95 121.4 3070.95 174.5 3070.95 247.7ZM2803.65 345.8C2851.65 345.8 2884.35 338 2901.75 322.4C2919.15 306.8 2927.85 282.2 2927.85 248.6C2927.85 214.4 2918.85 191 2900.85 178.4C2882.85 165.8 2851.35 159.5 2806.35 159.5H2701.05V345.8H2803.65ZM3620.46 597.8C3565.86 649.4 3501.66 675.2 3427.86 675.2C3354.66 675.2 3294.06 652.7 3246.06 607.7C3198.06 562.1 3174.06 501.2 3174.06 425C3174.06 348.8 3198.36 288.2 3246.96 243.2C3296.16 198.2 3354.06 175.7 3420.66 175.7C3487.26 175.7 3543.66 195.8 3589.86 236C3636.66 276.2 3660.06 331.4 3660.06 401.6V473.6H3307.26C3311.46 500 3325.26 521.6 3348.66 538.4C3372.06 555.2 3398.46 563.6 3427.86 563.6C3475.26 563.6 3514.26 547.7 3544.86 515.9L3620.46 597.8ZM3523.26 377.3C3520.26 348.5 3509.46 326.3 3490.86 310.7C3472.26 295.1 3449.46 287.3 3422.46 287.3C3396.06 287.3 3371.76 295.4 3349.56 311.6C3327.36 327.8 3314.46 349.7 3310.86 377.3H3523.26ZM4168.71 668H4041.81V609.5C4007.01 653.3 3963.81 675.2 3912.21 675.2C3861.21 675.2 3818.31 660.5 3783.51 631.1C3748.71 601.1 3731.31 561.5 3731.31 512.3C3731.31 462.5 3749.31 425.3 3785.31 400.7C3821.31 376.1 3870.51 363.8 3932.91 363.8H4033.71V361.1C4033.71 309.5 4006.41 283.7 3951.81 283.7C3928.41 283.7 3903.51 288.5 3877.11 298.1C3851.31 307.1 3829.41 318.5 3811.41 332.3L3751.11 245C3814.71 198.8 3887.31 175.7 3968.91 175.7C4027.71 175.7 4075.71 190.4 4112.91 219.8C4150.11 249.2 4168.71 295.7 4168.71 359.3V668ZM4032.81 483.5V460.1H3948.21C3894.21 460.1 3867.21 476.9 3867.21 510.5C3867.21 527.9 3873.51 541.4 3886.11 551C3899.31 560 3917.91 564.5 3941.91 564.5C3965.91 564.5 3986.91 557.3 4004.91 542.9C4023.51 527.9 4032.81 508.1 4032.81 483.5ZM4485.28 675.2C4428.28 675.2 4377.28 650.9 4332.28 602.3C4287.28 553.7 4264.78 493.4 4264.78 421.4C4264.78 349.4 4286.68 290.6 4330.48 245C4374.28 198.8 4425.58 175.7 4484.38 175.7C4543.18 175.7 4591.18 196.4 4628.38 237.8V0.199961H4763.38V668H4628.38V604.1C4590.58 651.5 4542.88 675.2 4485.28 675.2ZM4400.68 426.8C4400.68 465.8 4412.38 497.9 4435.78 523.1C4459.18 547.7 4486.48 560 4517.68 560C4548.88 560 4575.28 547.7 4596.88 523.1C4619.08 497.9 4630.18 465.8 4630.18 426.8C4630.18 387.2 4619.08 354.5 4596.88 328.7C4575.28 302.3 4548.58 289.1 4516.78 289.1C4484.98 289.1 4457.68 302.3 4434.88 328.7C4412.08 355.1 4400.68 387.8 4400.68 426.8Z" fill="#0066FF"/>
</svg>
